<mxfile host="app.diagrams.net" modified="2022-10-13T19:22:57.095Z" agent="5.0 (Macintosh; Intel Mac OS X 10_15_7) AppleWebKit/537.36 (KHTML, like Gecko) Chrome/105.0.0.0 Safari/537.36" etag="jqUqJQnJoeJPNRqqr35z" version="20.4.0" type="github">
  <diagram id="KMkLS6SZUert5sOirfcd" name="Page-1">
    <mxGraphModel dx="1426" dy="826" grid="1" gridSize="10" guides="1" tooltips="1" connect="1" arrows="1" fold="1" page="1" pageScale="1" pageWidth="1654" pageHeight="1169" math="0" shadow="0">
      <root>
        <mxCell id="0" />
        <mxCell id="1" parent="0" />
        <mxCell id="83vPISlT9Hn9MjfiydqY-10" value="" style="rounded=0;whiteSpace=wrap;html=1;fontSize=22;fillColor=none;" vertex="1" parent="1">
          <mxGeometry x="237.5" y="450" width="120" height="400" as="geometry" />
        </mxCell>
        <mxCell id="83vPISlT9Hn9MjfiydqY-1" value="&lt;meta charset=&quot;utf-8&quot;&gt;&lt;p style=&quot;margin: 0cm; font-size: 11pt; font-family: Calibri, sans-serif; caret-color: rgb(0, 0, 0); color: rgb(0, 0, 0); font-style: normal; font-variant-caps: normal; font-weight: normal; letter-spacing: normal; text-align: start; text-indent: 0px; text-transform: none; word-spacing: 0px; text-size-adjust: auto; -webkit-text-stroke-width: 0px; text-decoration: none;&quot; class=&quot;MsoNormal&quot;&gt;&lt;b&gt;&lt;span style=&quot;font-size: 16pt;&quot; lang=&quot;EN-US&quot;&gt;Am.I.Sck&lt;/span&gt;&lt;/b&gt;&lt;/p&gt;&lt;p style=&quot;margin: 0cm; font-size: 11pt; font-family: Calibri, sans-serif; caret-color: rgb(0, 0, 0); color: rgb(0, 0, 0); font-style: normal; font-variant-caps: normal; font-weight: normal; letter-spacing: normal; text-align: start; text-indent: 0px; text-transform: none; word-spacing: 0px; text-size-adjust: auto; -webkit-text-stroke-width: 0px; text-decoration: none;&quot; class=&quot;MsoNormal&quot;&gt;&lt;span lang=&quot;EN-US&quot;&gt;Your company wants to build a software system supporting chat nurses (advice nurse) answering questions from customers about potential health problems.&lt;/span&gt;&lt;/p&gt;&lt;p style=&quot;margin: 0cm; font-size: 11pt; font-family: Calibri, sans-serif; caret-color: rgb(0, 0, 0); color: rgb(0, 0, 0); font-style: normal; font-variant-caps: normal; font-weight: normal; letter-spacing: normal; text-align: start; text-indent: 0px; text-transform: none; word-spacing: 0px; text-size-adjust: auto; -webkit-text-stroke-width: 0px; text-decoration: none;&quot; class=&quot;MsoNormal&quot;&gt;&lt;span lang=&quot;EN-US&quot;&gt;&amp;nbsp;&lt;/span&gt;&lt;/p&gt;&lt;p style=&quot;margin: 0cm; font-size: 11pt; font-family: Calibri, sans-serif; caret-color: rgb(0, 0, 0); color: rgb(0, 0, 0); font-style: normal; font-variant-caps: normal; font-weight: normal; letter-spacing: normal; text-align: start; text-indent: 0px; text-transform: none; word-spacing: 0px; text-size-adjust: auto; -webkit-text-stroke-width: 0px; text-decoration: none;&quot; class=&quot;MsoNormal&quot;&gt;&lt;b&gt;&lt;span lang=&quot;EN-US&quot;&gt;Users:&lt;/span&gt;&lt;/b&gt;&lt;span lang=&quot;EN-US&quot;&gt;&lt;span class=&quot;Apple-converted-space&quot;&gt;&amp;nbsp;&lt;/span&gt;250+ nurses worldwide, hundreds to thousands of customers&lt;/span&gt;&lt;/p&gt;&lt;p style=&quot;margin: 0cm; font-size: 11pt; font-family: Calibri, sans-serif; caret-color: rgb(0, 0, 0); color: rgb(0, 0, 0); font-style: normal; font-variant-caps: normal; font-weight: normal; letter-spacing: normal; text-align: start; text-indent: 0px; text-transform: none; word-spacing: 0px; text-size-adjust: auto; -webkit-text-stroke-width: 0px; text-decoration: none;&quot; class=&quot;MsoNormal&quot;&gt;&lt;b&gt;&lt;span lang=&quot;EN-US&quot;&gt;&amp;nbsp;&lt;/span&gt;&lt;/b&gt;&lt;/p&gt;&lt;p style=&quot;margin: 0cm; font-size: 11pt; font-family: Calibri, sans-serif; caret-color: rgb(0, 0, 0); color: rgb(0, 0, 0); font-style: normal; font-variant-caps: normal; font-weight: normal; letter-spacing: normal; text-align: start; text-indent: 0px; text-transform: none; word-spacing: 0px; text-size-adjust: auto; -webkit-text-stroke-width: 0px; text-decoration: none;&quot; class=&quot;MsoNormal&quot;&gt;&lt;b&gt;&lt;span lang=&quot;EN-US&quot;&gt;Requirements:&lt;/span&gt;&lt;/b&gt;&lt;/p&gt;&lt;ul style=&quot;margin-bottom: 0cm; caret-color: rgb(0, 0, 0); color: rgb(0, 0, 0); font-family: Calibri; font-style: normal; font-variant-caps: normal; font-weight: normal; letter-spacing: normal; text-align: start; text-indent: 0px; text-transform: none; word-spacing: 0px; text-size-adjust: auto; -webkit-text-stroke-width: 0px; text-decoration: none; margin-top: 0cm;&quot; type=&quot;disc&quot;&gt;&lt;li style=&quot;margin: 0cm; font-size: 11pt; font-family: Calibri, sans-serif;&quot; class=&quot;MsoListParagraph&quot;&gt;&lt;span lang=&quot;EN-US&quot;&gt;access patient medical histories&lt;/span&gt;&lt;/li&gt;&lt;li style=&quot;margin: 0cm; font-size: 11pt; font-family: Calibri, sans-serif;&quot; class=&quot;MsoListParagraph&quot;&gt;&lt;span lang=&quot;EN-US&quot;&gt;provide a service-level agreement on turnaround time for interaction&lt;/span&gt;&lt;/li&gt;&lt;li style=&quot;margin: 0cm; font-size: 11pt; font-family: Calibri, sans-serif;&quot; class=&quot;MsoListParagraph&quot;&gt;&lt;span lang=&quot;EN-US&quot;&gt;assist nurses in providing medical diagnosis&lt;/span&gt;&lt;/li&gt;&lt;li style=&quot;margin: 0cm; font-size: 11pt; font-family: Calibri, sans-serif;&quot; class=&quot;MsoListParagraph&quot;&gt;&lt;span lang=&quot;EN-US&quot;&gt;support nurses geographically divergent from clients&lt;/span&gt;&lt;/li&gt;&lt;li style=&quot;margin: 0cm; font-size: 11pt; font-family: Calibri, sans-serif;&quot; class=&quot;MsoListParagraph&quot;&gt;&lt;span lang=&quot;EN-US&quot;&gt;enable client customers to reach local medical staff (if necessary), contacting the local medical staff directly ahead of time (if necessary)&lt;/span&gt;&lt;/li&gt;&lt;li style=&quot;margin: 0cm; font-size: 11pt; font-family: Calibri, sans-serif;&quot; class=&quot;MsoListParagraph&quot;&gt;&lt;span lang=&quot;EN-US&quot;&gt;eventually enable parts of the system for direct client customer use&lt;/span&gt;&lt;/li&gt;&lt;/ul&gt;&lt;p style=&quot;margin: 0cm; font-size: 11pt; font-family: Calibri, sans-serif; caret-color: rgb(0, 0, 0); color: rgb(0, 0, 0); font-style: normal; font-variant-caps: normal; font-weight: normal; letter-spacing: normal; text-align: start; text-indent: 0px; text-transform: none; word-spacing: 0px; text-size-adjust: auto; -webkit-text-stroke-width: 0px; text-decoration: none;&quot; class=&quot;MsoNormal&quot;&gt;&lt;span lang=&quot;EN-US&quot;&gt;&amp;nbsp;&lt;/span&gt;&lt;/p&gt;&lt;p style=&quot;margin: 0cm; font-size: 11pt; font-family: Calibri, sans-serif; caret-color: rgb(0, 0, 0); color: rgb(0, 0, 0); font-style: normal; font-variant-caps: normal; font-weight: normal; letter-spacing: normal; text-align: start; text-indent: 0px; text-transform: none; word-spacing: 0px; text-size-adjust: auto; -webkit-text-stroke-width: 0px; text-decoration: none;&quot; class=&quot;MsoNormal&quot;&gt;&lt;b&gt;&lt;span lang=&quot;EN-US&quot;&gt;Additional Context:&lt;/span&gt;&lt;/b&gt;&lt;/p&gt;&lt;ul style=&quot;margin-bottom: 0cm; caret-color: rgb(0, 0, 0); color: rgb(0, 0, 0); font-family: Calibri; font-style: normal; font-variant-caps: normal; font-weight: normal; letter-spacing: normal; text-align: start; text-indent: 0px; text-transform: none; word-spacing: 0px; text-size-adjust: auto; -webkit-text-stroke-width: 0px; text-decoration: none; margin-top: 0cm;&quot; type=&quot;disc&quot;&gt;&lt;li style=&quot;margin: 0cm; font-size: 11pt; font-family: Calibri, sans-serif;&quot; class=&quot;MsoListParagraph&quot;&gt;&lt;span lang=&quot;EN-US&quot;&gt;company is building software solutions in niche spaces like this one&lt;/span&gt;&lt;/li&gt;&lt;li style=&quot;margin: 0cm; font-size: 11pt; font-family: Calibri, sans-serif;&quot; class=&quot;MsoListParagraph&quot;&gt;&lt;span lang=&quot;EN-US&quot;&gt;aggressive growth with 2nd round VC funding&lt;/span&gt;&lt;/li&gt;&lt;li style=&quot;margin: 0cm; font-size: 11pt; font-family: Calibri, sans-serif;&quot; class=&quot;MsoListParagraph&quot;&gt;&lt;span lang=&quot;EN-US&quot;&gt;fast time to market is the overall company goal to capture market&lt;/span&gt;&lt;/li&gt;&lt;li style=&quot;margin: 0cm; font-size: 11pt; font-family: Calibri, sans-serif;&quot; class=&quot;MsoListParagraph&quot;&gt;&lt;span lang=&quot;EN-US&quot;&gt;our lawyers have determined that the conversation is not considered a medical record&lt;/span&gt;&lt;/li&gt;&lt;/ul&gt;" style="text;whiteSpace=wrap;html=1;" vertex="1" parent="1">
          <mxGeometry x="2" width="710" height="400" as="geometry" />
        </mxCell>
        <mxCell id="83vPISlT9Hn9MjfiydqY-2" value="&lt;p style=&quot;margin: 0cm; font-size: 11pt; font-family: Calibri, sans-serif; caret-color: rgb(0, 0, 0); color: rgb(0, 0, 0); font-style: normal; font-variant-caps: normal; font-weight: normal; letter-spacing: normal; text-align: start; text-indent: 0px; text-transform: none; word-spacing: 0px; text-size-adjust: auto; -webkit-text-stroke-width: 0px; text-decoration: none;&quot; class=&quot;MsoNormal&quot;&gt;&lt;b&gt;&lt;span style=&quot;font-size: 16pt;&quot; lang=&quot;EN-US&quot;&gt;Architecture Characteristics&lt;/span&gt;&lt;/b&gt;&lt;/p&gt;&lt;p style=&quot;margin: 0cm; font-size: 11pt; font-family: Calibri, sans-serif; caret-color: rgb(0, 0, 0); color: rgb(0, 0, 0); font-style: normal; font-variant-caps: normal; letter-spacing: normal; text-align: start; text-indent: 0px; text-transform: none; word-spacing: 0px; text-size-adjust: auto; -webkit-text-stroke-width: 0px; text-decoration: none;&quot; class=&quot;MsoNormal&quot;&gt;&lt;/p&gt;&lt;ul&gt;&lt;li&gt;&lt;span style=&quot;font-size: 22px;&quot;&gt;&lt;span style=&quot;font-size: 16pt;&quot; lang=&quot;EN-US&quot;&gt;Availability&lt;/span&gt;&lt;/span&gt;&lt;/li&gt;&lt;li&gt;&lt;span style=&quot;font-size: 22px;&quot;&gt;&lt;span style=&quot;font-size: 16pt;&quot; lang=&quot;EN-US&quot;&gt;Reliability&lt;/span&gt;&lt;/span&gt;&lt;/li&gt;&lt;li&gt;&lt;span style=&quot;font-size: 22px;&quot;&gt;&lt;span style=&quot;font-size: 16pt;&quot; lang=&quot;EN-US&quot;&gt;Accessibility&lt;/span&gt;&lt;/span&gt;&lt;/li&gt;&lt;li&gt;&lt;span style=&quot;font-size: 22px;&quot;&gt;&lt;span style=&quot;font-size: 16pt;&quot; lang=&quot;EN-US&quot;&gt;Authorization&lt;/span&gt;&lt;/span&gt;&lt;/li&gt;&lt;li&gt;&lt;span style=&quot;font-size: 22px;&quot;&gt;&lt;span style=&quot;font-size: 16pt;&quot; lang=&quot;EN-US&quot;&gt;Scalability&lt;/span&gt;&lt;/span&gt;&lt;/li&gt;&lt;/ul&gt;&lt;p&gt;&lt;/p&gt;" style="text;whiteSpace=wrap;html=1;" vertex="1" parent="1">
          <mxGeometry x="1060" width="380" height="190" as="geometry" />
        </mxCell>
        <mxCell id="83vPISlT9Hn9MjfiydqY-4" value="" style="sketch=0;pointerEvents=1;shadow=0;dashed=0;html=1;strokeColor=none;fillColor=#000000;labelPosition=center;verticalLabelPosition=bottom;verticalAlign=top;align=center;outlineConnect=0;shape=mxgraph.veeam2.laptop;fontSize=22;" vertex="1" parent="1">
          <mxGeometry x="60" y="480" width="48" height="28.000000000000004" as="geometry" />
        </mxCell>
        <mxCell id="83vPISlT9Hn9MjfiydqY-5" value="" style="sketch=0;pointerEvents=1;shadow=0;dashed=0;html=1;strokeColor=none;fillColor=#000000;labelPosition=center;verticalLabelPosition=bottom;verticalAlign=top;align=center;outlineConnect=0;shape=mxgraph.veeam2.laptop;fontSize=22;" vertex="1" parent="1">
          <mxGeometry x="60" y="777" width="48" height="28.000000000000004" as="geometry" />
        </mxCell>
        <mxCell id="83vPISlT9Hn9MjfiydqY-6" value="" style="sketch=0;pointerEvents=1;shadow=0;dashed=0;html=1;strokeColor=none;fillColor=#505050;labelPosition=center;verticalLabelPosition=bottom;verticalAlign=top;outlineConnect=0;align=center;shape=mxgraph.office.devices.cell_phone_iphone_proportional;fontSize=22;" vertex="1" parent="1">
          <mxGeometry x="75.5" y="520" width="17" height="29" as="geometry" />
        </mxCell>
        <mxCell id="83vPISlT9Hn9MjfiydqY-7" value="Patients" style="text;html=1;strokeColor=none;fillColor=none;align=center;verticalAlign=middle;whiteSpace=wrap;rounded=0;fontSize=18;" vertex="1" parent="1">
          <mxGeometry x="54" y="551" width="60" height="30" as="geometry" />
        </mxCell>
        <mxCell id="83vPISlT9Hn9MjfiydqY-8" value="Admin" style="text;html=1;strokeColor=none;fillColor=none;align=center;verticalAlign=middle;whiteSpace=wrap;rounded=0;fontSize=18;" vertex="1" parent="1">
          <mxGeometry x="54" y="806" width="60" height="30" as="geometry" />
        </mxCell>
        <mxCell id="83vPISlT9Hn9MjfiydqY-9" value="API Gateway" style="outlineConnect=0;dashed=0;verticalLabelPosition=bottom;verticalAlign=top;align=center;html=1;shape=mxgraph.aws3.api_gateway;fillColor=#D9A741;gradientColor=none;fontSize=18;" vertex="1" parent="1">
          <mxGeometry x="260" y="587" width="76.5" height="93" as="geometry" />
        </mxCell>
        <mxCell id="83vPISlT9Hn9MjfiydqY-11" value="Put MedicalHistory" style="outlineConnect=0;dashed=0;verticalLabelPosition=bottom;verticalAlign=top;align=center;html=1;shape=mxgraph.aws3.lambda_function;fillColor=#F58534;gradientColor=none;fontSize=12;aspect=fixed;" vertex="1" parent="1">
          <mxGeometry x="479" y="430" width="47.88" height="50" as="geometry" />
        </mxCell>
        <mxCell id="83vPISlT9Hn9MjfiydqY-13" value="Patient History DB" style="sketch=0;points=[[0,0,0],[0.25,0,0],[0.5,0,0],[0.75,0,0],[1,0,0],[0,1,0],[0.25,1,0],[0.5,1,0],[0.75,1,0],[1,1,0],[0,0.25,0],[0,0.5,0],[0,0.75,0],[1,0.25,0],[1,0.5,0],[1,0.75,0]];outlineConnect=0;fontColor=#232F3E;gradientColor=#4D72F3;gradientDirection=north;fillColor=#3334B9;strokeColor=#ffffff;dashed=0;verticalLabelPosition=bottom;verticalAlign=top;align=center;html=1;fontSize=12;fontStyle=0;aspect=fixed;shape=mxgraph.aws4.resourceIcon;resIcon=mxgraph.aws4.documentdb_with_mongodb_compatibility;" vertex="1" parent="1">
          <mxGeometry x="720" y="436" width="78" height="78" as="geometry" />
        </mxCell>
        <mxCell id="83vPISlT9Hn9MjfiydqY-14" value="Get MedicalHistory" style="outlineConnect=0;dashed=0;verticalLabelPosition=bottom;verticalAlign=top;align=center;html=1;shape=mxgraph.aws3.lambda_function;fillColor=#F58534;gradientColor=none;fontSize=12;aspect=fixed;" vertex="1" parent="1">
          <mxGeometry x="479" y="517" width="47.88" height="50" as="geometry" />
        </mxCell>
        <mxCell id="83vPISlT9Hn9MjfiydqY-15" value="" style="endArrow=classic;html=1;rounded=0;fontSize=12;entryX=0;entryY=0.5;entryDx=0;entryDy=0;entryPerimeter=0;exitX=1.029;exitY=0.023;exitDx=0;exitDy=0;exitPerimeter=0;" edge="1" parent="1" source="83vPISlT9Hn9MjfiydqY-10" target="83vPISlT9Hn9MjfiydqY-11">
          <mxGeometry width="50" height="50" relative="1" as="geometry">
            <mxPoint x="330" y="468.5" as="sourcePoint" />
            <mxPoint x="470" y="468.5" as="targetPoint" />
          </mxGeometry>
        </mxCell>
        <mxCell id="83vPISlT9Hn9MjfiydqY-16" value="MedicalHistory" style="edgeLabel;html=1;align=center;verticalAlign=middle;resizable=0;points=[];fontSize=12;" vertex="1" connectable="0" parent="83vPISlT9Hn9MjfiydqY-15">
          <mxGeometry x="-0.0613" y="2" relative="1" as="geometry">
            <mxPoint as="offset" />
          </mxGeometry>
        </mxCell>
        <mxCell id="83vPISlT9Hn9MjfiydqY-17" value="" style="sketch=0;pointerEvents=1;shadow=0;dashed=0;html=1;strokeColor=none;fillColor=#000000;labelPosition=center;verticalLabelPosition=bottom;verticalAlign=top;align=center;outlineConnect=0;shape=mxgraph.veeam2.laptop;fontSize=22;" vertex="1" parent="1">
          <mxGeometry x="60" y="610" width="48" height="28.000000000000004" as="geometry" />
        </mxCell>
        <mxCell id="83vPISlT9Hn9MjfiydqY-18" value="Nurses" style="sketch=0;pointerEvents=1;shadow=0;dashed=0;html=1;strokeColor=none;fillColor=#505050;labelPosition=center;verticalLabelPosition=bottom;verticalAlign=top;outlineConnect=0;align=center;shape=mxgraph.office.devices.cell_phone_iphone_proportional;fontSize=18;" vertex="1" parent="1">
          <mxGeometry x="75.5" y="650" width="17" height="29" as="geometry" />
        </mxCell>
        <mxCell id="83vPISlT9Hn9MjfiydqY-19" value="" style="endArrow=classic;html=1;rounded=0;fontSize=12;entryX=0;entryY=0.25;entryDx=0;entryDy=0;entryPerimeter=0;exitX=1;exitY=0.5;exitDx=0;exitDy=0;exitPerimeter=0;" edge="1" parent="1" source="83vPISlT9Hn9MjfiydqY-11" target="83vPISlT9Hn9MjfiydqY-13">
          <mxGeometry width="50" height="50" relative="1" as="geometry">
            <mxPoint x="526.8799999999999" y="340.70000000000005" as="sourcePoint" />
            <mxPoint x="690.8199999999999" y="340.5" as="targetPoint" />
          </mxGeometry>
        </mxCell>
        <mxCell id="83vPISlT9Hn9MjfiydqY-20" value="MedicalHistory" style="edgeLabel;html=1;align=center;verticalAlign=middle;resizable=0;points=[];fontSize=12;" vertex="1" connectable="0" parent="83vPISlT9Hn9MjfiydqY-19">
          <mxGeometry x="-0.0613" y="2" relative="1" as="geometry">
            <mxPoint as="offset" />
          </mxGeometry>
        </mxCell>
        <mxCell id="83vPISlT9Hn9MjfiydqY-21" value="Medical History" style="endArrow=classic;html=1;rounded=0;fontSize=12;entryX=-0.021;entryY=0.173;entryDx=0;entryDy=0;entryPerimeter=0;" edge="1" parent="1">
          <mxGeometry width="50" height="50" relative="1" as="geometry">
            <mxPoint x="114" y="488" as="sourcePoint" />
            <mxPoint x="234.98000000000002" y="488.20000000000005" as="targetPoint" />
          </mxGeometry>
        </mxCell>
        <mxCell id="83vPISlT9Hn9MjfiydqY-22" value="" style="endArrow=classic;html=1;rounded=0;fontSize=12;exitX=0;exitY=0.5;exitDx=0;exitDy=0;" edge="1" parent="1">
          <mxGeometry width="50" height="50" relative="1" as="geometry">
            <mxPoint x="237.5" y="637" as="sourcePoint" />
            <mxPoint x="120" y="637" as="targetPoint" />
          </mxGeometry>
        </mxCell>
        <mxCell id="83vPISlT9Hn9MjfiydqY-23" value="MedicalHistory" style="edgeLabel;html=1;align=center;verticalAlign=middle;resizable=0;points=[];fontSize=12;" vertex="1" connectable="0" parent="83vPISlT9Hn9MjfiydqY-22">
          <mxGeometry x="-0.2878" relative="1" as="geometry">
            <mxPoint x="-10" as="offset" />
          </mxGeometry>
        </mxCell>
        <mxCell id="83vPISlT9Hn9MjfiydqY-24" value="" style="endArrow=classic;html=1;rounded=0;fontSize=12;entryX=1;entryY=0.5;entryDx=0;entryDy=0;entryPerimeter=0;exitX=0;exitY=0.75;exitDx=0;exitDy=0;exitPerimeter=0;" edge="1" parent="1" source="83vPISlT9Hn9MjfiydqY-13" target="83vPISlT9Hn9MjfiydqY-14">
          <mxGeometry width="50" height="50" relative="1" as="geometry">
            <mxPoint x="700" y="476" as="sourcePoint" />
            <mxPoint x="670" y="505" as="targetPoint" />
            <Array as="points">
              <mxPoint x="670" y="496" />
              <mxPoint x="670" y="541" />
            </Array>
          </mxGeometry>
        </mxCell>
        <mxCell id="83vPISlT9Hn9MjfiydqY-25" value="MedicalHistory" style="edgeLabel;html=1;align=center;verticalAlign=middle;resizable=0;points=[];fontSize=12;" vertex="1" connectable="0" parent="83vPISlT9Hn9MjfiydqY-24">
          <mxGeometry x="0.0752" relative="1" as="geometry">
            <mxPoint as="offset" />
          </mxGeometry>
        </mxCell>
        <mxCell id="83vPISlT9Hn9MjfiydqY-26" value="" style="endArrow=classic;html=1;rounded=0;fontSize=12;entryX=1.029;entryY=0.538;entryDx=0;entryDy=0;entryPerimeter=0;" edge="1" parent="1">
          <mxGeometry width="50" height="50" relative="1" as="geometry">
            <mxPoint x="479" y="540" as="sourcePoint" />
            <mxPoint x="360.98" y="541.2" as="targetPoint" />
          </mxGeometry>
        </mxCell>
        <mxCell id="83vPISlT9Hn9MjfiydqY-27" value="MedicalHistory" style="edgeLabel;html=1;align=center;verticalAlign=middle;resizable=0;points=[];fontSize=12;" vertex="1" connectable="0" parent="83vPISlT9Hn9MjfiydqY-26">
          <mxGeometry x="-0.2483" relative="1" as="geometry">
            <mxPoint as="offset" />
          </mxGeometry>
        </mxCell>
        <mxCell id="83vPISlT9Hn9MjfiydqY-28" value="" style="endArrow=classic;html=1;rounded=0;fontSize=12;exitX=-0.012;exitY=0.235;exitDx=0;exitDy=0;exitPerimeter=0;strokeColor=#7EA6E0;" edge="1" parent="1">
          <mxGeometry width="50" height="50" relative="1" as="geometry">
            <mxPoint x="236.05999999999995" y="513" as="sourcePoint" />
            <mxPoint x="110" y="514" as="targetPoint" />
          </mxGeometry>
        </mxCell>
        <mxCell id="83vPISlT9Hn9MjfiydqY-29" value="LocalMedical&lt;br&gt;Staff" style="edgeLabel;html=1;align=center;verticalAlign=middle;resizable=0;points=[];fontSize=12;fontColor=#7EA6E0;" vertex="1" connectable="0" parent="83vPISlT9Hn9MjfiydqY-28">
          <mxGeometry x="-0.2264" y="-1" relative="1" as="geometry">
            <mxPoint x="-9" y="2" as="offset" />
          </mxGeometry>
        </mxCell>
        <mxCell id="83vPISlT9Hn9MjfiydqY-30" value="" style="endArrow=classic;html=1;rounded=0;strokeColor=#7EA6E0;fontSize=12;entryX=0;entryY=0.5;entryDx=0;entryDy=0;entryPerimeter=0;" edge="1" parent="1" target="83vPISlT9Hn9MjfiydqY-33">
          <mxGeometry width="50" height="50" relative="1" as="geometry">
            <mxPoint x="360" y="775" as="sourcePoint" />
            <mxPoint x="407.5" y="730" as="targetPoint" />
          </mxGeometry>
        </mxCell>
        <mxCell id="83vPISlT9Hn9MjfiydqY-31" value="LocalMedical&lt;br&gt;Staff" style="endArrow=classic;html=1;rounded=0;strokeColor=#7EA6E0;fontSize=12;entryX=-0.062;entryY=0.85;entryDx=0;entryDy=0;entryPerimeter=0;fontColor=#7EA6E0;" edge="1" parent="1">
          <mxGeometry width="50" height="50" relative="1" as="geometry">
            <mxPoint x="114" y="790" as="sourcePoint" />
            <mxPoint x="230.05999999999995" y="790" as="targetPoint" />
          </mxGeometry>
        </mxCell>
        <mxCell id="83vPISlT9Hn9MjfiydqY-32" value="Local Medical Staff" style="outlineConnect=0;dashed=0;verticalLabelPosition=bottom;verticalAlign=top;align=center;html=1;shape=mxgraph.aws3.dynamo_db;fillColor=#2E73B8;gradientColor=none;fontSize=12;" vertex="1" parent="1">
          <mxGeometry x="730" y="745.5" width="72" height="81" as="geometry" />
        </mxCell>
        <mxCell id="83vPISlT9Hn9MjfiydqY-33" value="Add LocalMedicalStaff" style="outlineConnect=0;dashed=0;verticalLabelPosition=bottom;verticalAlign=top;align=center;html=1;shape=mxgraph.aws3.lambda_function;fillColor=#F58534;gradientColor=none;fontSize=12;aspect=fixed;" vertex="1" parent="1">
          <mxGeometry x="479" y="750" width="47.88" height="50" as="geometry" />
        </mxCell>
        <mxCell id="83vPISlT9Hn9MjfiydqY-34" value="Get LocalMedicalStaff" style="outlineConnect=0;dashed=0;verticalLabelPosition=bottom;verticalAlign=top;align=center;html=1;shape=mxgraph.aws3.lambda_function;fillColor=#F58534;gradientColor=none;fontSize=12;aspect=fixed;" vertex="1" parent="1">
          <mxGeometry x="479" y="836" width="47.88" height="50" as="geometry" />
        </mxCell>
        <mxCell id="83vPISlT9Hn9MjfiydqY-38" value="" style="endArrow=classic;html=1;rounded=0;strokeColor=#7EA6E0;fontSize=12;entryX=0;entryY=0.22;entryDx=0;entryDy=0;entryPerimeter=0;" edge="1" parent="1">
          <mxGeometry width="50" height="50" relative="1" as="geometry">
            <mxPoint x="526.88" y="774.5" as="sourcePoint" />
            <mxPoint x="730" y="773.3199999999999" as="targetPoint" />
          </mxGeometry>
        </mxCell>
        <mxCell id="83vPISlT9Hn9MjfiydqY-42" value="LocalMedicalStaff" style="edgeLabel;html=1;align=center;verticalAlign=middle;resizable=0;points=[];fontSize=12;fontColor=#7EA6E0;" vertex="1" connectable="0" parent="83vPISlT9Hn9MjfiydqY-38">
          <mxGeometry x="-0.0731" y="3" relative="1" as="geometry">
            <mxPoint as="offset" />
          </mxGeometry>
        </mxCell>
        <mxCell id="83vPISlT9Hn9MjfiydqY-39" value="" style="endArrow=classic;html=1;rounded=0;strokeColor=#7EA6E0;fontSize=12;entryX=1;entryY=0.5;entryDx=0;entryDy=0;entryPerimeter=0;exitX=0;exitY=0.673;exitDx=0;exitDy=0;exitPerimeter=0;" edge="1" parent="1" source="83vPISlT9Hn9MjfiydqY-32" target="83vPISlT9Hn9MjfiydqY-34">
          <mxGeometry width="50" height="50" relative="1" as="geometry">
            <mxPoint x="680" y="810" as="sourcePoint" />
            <mxPoint x="670" y="796" as="targetPoint" />
            <Array as="points">
              <mxPoint x="700" y="800" />
              <mxPoint x="700" y="860" />
            </Array>
          </mxGeometry>
        </mxCell>
        <mxCell id="83vPISlT9Hn9MjfiydqY-40" value="LocalMedicalStaff" style="edgeLabel;html=1;align=center;verticalAlign=middle;resizable=0;points=[];fontSize=12;fontColor=#7EA6E0;" vertex="1" connectable="0" parent="83vPISlT9Hn9MjfiydqY-39">
          <mxGeometry x="0.3756" y="-4" relative="1" as="geometry">
            <mxPoint x="8" as="offset" />
          </mxGeometry>
        </mxCell>
        <mxCell id="83vPISlT9Hn9MjfiydqY-41" value="" style="endArrow=classic;html=1;rounded=0;strokeColor=#7EA6E0;fontSize=12;exitX=0;exitY=0.5;exitDx=0;exitDy=0;exitPerimeter=0;entryX=1.013;entryY=0.915;entryDx=0;entryDy=0;entryPerimeter=0;" edge="1" parent="1" source="83vPISlT9Hn9MjfiydqY-34" target="83vPISlT9Hn9MjfiydqY-10">
          <mxGeometry width="50" height="50" relative="1" as="geometry">
            <mxPoint x="390" y="870" as="sourcePoint" />
            <mxPoint x="440" y="820" as="targetPoint" />
            <Array as="points">
              <mxPoint x="410" y="860" />
              <mxPoint x="410" y="816" />
            </Array>
          </mxGeometry>
        </mxCell>
        <mxCell id="83vPISlT9Hn9MjfiydqY-51" style="edgeStyle=orthogonalEdgeStyle;rounded=0;orthogonalLoop=1;jettySize=auto;html=1;exitX=0;exitY=0.78;exitDx=0;exitDy=0;exitPerimeter=0;entryX=1;entryY=0.5;entryDx=0;entryDy=0;entryPerimeter=0;strokeColor=#EA6B66;fontSize=12;" edge="1" parent="1" source="83vPISlT9Hn9MjfiydqY-43" target="83vPISlT9Hn9MjfiydqY-44">
          <mxGeometry relative="1" as="geometry" />
        </mxCell>
        <mxCell id="83vPISlT9Hn9MjfiydqY-43" value="Nurse Directory" style="outlineConnect=0;dashed=0;verticalLabelPosition=bottom;verticalAlign=top;align=center;html=1;shape=mxgraph.aws3.dynamo_db;fillColor=#2E73B8;gradientColor=none;fontSize=12;" vertex="1" parent="1">
          <mxGeometry x="730" y="627.5" width="72" height="81" as="geometry" />
        </mxCell>
        <mxCell id="83vPISlT9Hn9MjfiydqY-49" style="edgeStyle=orthogonalEdgeStyle;rounded=0;orthogonalLoop=1;jettySize=auto;html=1;exitX=0;exitY=0.5;exitDx=0;exitDy=0;exitPerimeter=0;entryX=1.038;entryY=0.55;entryDx=0;entryDy=0;entryPerimeter=0;strokeColor=#EA6B66;fontSize=12;" edge="1" parent="1" source="83vPISlT9Hn9MjfiydqY-44">
          <mxGeometry relative="1" as="geometry">
            <mxPoint x="362.05999999999995" y="690" as="targetPoint" />
          </mxGeometry>
        </mxCell>
        <mxCell id="83vPISlT9Hn9MjfiydqY-44" value="Get NurseDirectory" style="outlineConnect=0;dashed=0;verticalLabelPosition=bottom;verticalAlign=top;align=center;html=1;shape=mxgraph.aws3.lambda_function;fillColor=#F58534;gradientColor=none;fontSize=12;aspect=fixed;" vertex="1" parent="1">
          <mxGeometry x="479" y="665" width="47.88" height="50" as="geometry" />
        </mxCell>
        <mxCell id="83vPISlT9Hn9MjfiydqY-50" value="NurseInfo" style="endArrow=classic;html=1;rounded=0;strokeColor=#EA6B66;fontSize=12;fontColor=#EA6B66;" edge="1" parent="1">
          <mxGeometry width="50" height="50" relative="1" as="geometry">
            <mxPoint x="120" y="674" as="sourcePoint" />
            <mxPoint x="235" y="674" as="targetPoint" />
          </mxGeometry>
        </mxCell>
        <mxCell id="83vPISlT9Hn9MjfiydqY-52" value="" style="endArrow=classic;html=1;rounded=0;strokeColor=#EA6B66;fontSize=12;exitX=0;exitY=0.25;exitDx=0;exitDy=0;" edge="1" parent="1" source="83vPISlT9Hn9MjfiydqY-10">
          <mxGeometry width="50" height="50" relative="1" as="geometry">
            <mxPoint x="150" y="591" as="sourcePoint" />
            <mxPoint x="110" y="550" as="targetPoint" />
          </mxGeometry>
        </mxCell>
        <mxCell id="83vPISlT9Hn9MjfiydqY-53" value="Nurse&lt;br&gt;Directory" style="edgeLabel;html=1;align=center;verticalAlign=middle;resizable=0;points=[];fontSize=12;fontColor=#EA6B66;" vertex="1" connectable="0" parent="83vPISlT9Hn9MjfiydqY-52">
          <mxGeometry x="-0.0667" y="3" relative="1" as="geometry">
            <mxPoint as="offset" />
          </mxGeometry>
        </mxCell>
        <mxCell id="83vPISlT9Hn9MjfiydqY-55" value="Add Nurse" style="outlineConnect=0;dashed=0;verticalLabelPosition=bottom;verticalAlign=top;align=center;html=1;shape=mxgraph.aws3.lambda_function;fillColor=#F58534;gradientColor=none;fontSize=12;aspect=fixed;" vertex="1" parent="1">
          <mxGeometry x="479" y="588" width="47.88" height="50" as="geometry" />
        </mxCell>
        <mxCell id="83vPISlT9Hn9MjfiydqY-56" value="NurseInfo" style="endArrow=classic;html=1;rounded=0;strokeColor=#EA6B66;fontSize=12;fontColor=#EA6B66;" edge="1" parent="1" target="83vPISlT9Hn9MjfiydqY-55">
          <mxGeometry width="50" height="50" relative="1" as="geometry">
            <mxPoint x="360" y="613" as="sourcePoint" />
            <mxPoint x="479" y="612.5" as="targetPoint" />
          </mxGeometry>
        </mxCell>
        <mxCell id="83vPISlT9Hn9MjfiydqY-57" value="NurseInfo" style="endArrow=classic;html=1;rounded=0;strokeColor=#EA6B66;fontSize=12;fontColor=#EA6B66;exitX=1;exitY=0.5;exitDx=0;exitDy=0;exitPerimeter=0;entryX=0;entryY=0.22;entryDx=0;entryDy=0;entryPerimeter=0;" edge="1" parent="1" source="83vPISlT9Hn9MjfiydqY-55" target="83vPISlT9Hn9MjfiydqY-43">
          <mxGeometry width="50" height="50" relative="1" as="geometry">
            <mxPoint x="522" y="598" as="sourcePoint" />
            <mxPoint x="680" y="680" as="targetPoint" />
            <Array as="points">
              <mxPoint x="700" y="613" />
              <mxPoint x="700" y="645" />
            </Array>
          </mxGeometry>
        </mxCell>
      </root>
    </mxGraphModel>
  </diagram>
</mxfile>
